# xmcd CD database file
#
# Track frame offsets:
#	150
#	26640
#	49353
#	73469
#	106305
#	129518
#
# Disc length: 2290 seconds
#
# Revision: 0
# Processed by: cddbd v1.4PL0 Copyright (c) Steve Scherf et al.
# Submitted via: CDex 1.50
#
DISCID=5808f006
DTITLE=Al DiMeola - Casino
DYEAR=1900
DGENRE=Jazz
TTITLE0=Egyptian Danza
TTITLE1=Chasin' The Voodoo
TTITLE2=Dark Eye Tango
TTITLE3=Senor Mouse
TTITLE4=Fantasia Suite for Two Guitars
TTITLE5=Casino
EXTD=
EXTT0=
EXTT1=
EXTT2=
EXTT3=
EXTT4=
EXTT5=
PLAYORDER=
